<?xml version="1.0" encoding="UTF-8"?>
<svg id="Layer_2" data-name="Layer 2" xmlns="http://www.w3.org/2000/svg" viewBox="0 0 340.74 410.86">
  <defs>
    <style>
      .cls-1 {
        fill: #000;
      }

      .cls-1, .cls-2 {
        stroke-width: 0px;
      }

      .cls-2 {
        fill: #fff;
      }
    </style>
  </defs>
  <g id="Layer_1-2" data-name="Layer 1">
    <path class="cls-2" d="M306.94,183.72c-.36,1.63-.67,3.05-1.01,4.56,13.42,7.67,22.87,18.8,25.16,33.76,1.86,12.19,1.18,24.87.63,37.29-.61,14.04-7.64,25.05-18.41,33.93-8.2,6.76-17.77,9.53-28.03,10.35-2.85.23-4.23,1.25-5.74,3.64-24.9,39.64-58.22,70.1-100.05,91.21-22.24,11.22-45.98,13.56-70.39,11.95-29.37-1.94-49.2-18.83-64.82-41.88-16.48-24.3-25.72-51.52-31.18-80.15-.99-5.22-1.75-10.48-2.49-15.74-.39-2.82-1.31-4.57-4.66-4.38-4.48.26-6.26-2.2-5.91-6.56.73-9.06,1.32-18.14,2.09-27.2.11-1.27.51-3.02,1.4-3.63,8.99-6.12,5-14.97,4.83-22.89-.09-4.09.66-8.76-4-11.52-.58-.34-.34-2.2-.35-3.35-.02-9,.08-18-.06-26.99-.05-3.11.44-4.93,4.17-5.18,5.29-.35,11.41.07,15.55-2.48,3.93-2.42,5.63-8.33,8.55-12.54,4.32-6.24,4.12-5.93-.63-11.59-11.62-13.85-18.97-29.58-19.53-47.97-.19-6.16-.05-12.33-.05-18.49,0-19.37,8.05-29.4,26.69-35.09,18.15-5.54,36.66-6.1,55.32-5.55,3.72.11,5.99-.97,8.15-4.13,9.31-13.58,23.18-19.88,38.85-21.61,32.8-3.63,64.9-1.04,95.9,11.78,36.19,14.96,64.46,38.84,83.58,72.93,7.36,13.13,13.84,26.96,18.78,41.14,2.54,7.31,1.08,16.11.79,24.21-.05,1.47-3.03,3.85-4.86,4.07-10.39,1.22-14.74,7.26-14.91,17.16-.01.63-.45,1.25-.6,1.89q-1.86,8.26-10.22,8.7c-.66.03-1.31.17-2.53.34ZM59.97,137.04c.09-.12-.29.39-.67.89-7.17,9.46-14.66,18.71-21.34,28.51-2.14,3.14-4.06,4.68-7.66,4.96-4.91.38-9.8,1.16-14.89,1.79.37,5.7-.22,10.21,3.19,15.58,3.56,5.62,3.61,14.03,3.57,21.21-.06,10.41-1.57,20.81-2.37,30.11-1.99,1.03-4.54,1.49-5.11,2.81-1.35,3.12-1.98,6.62-2.43,10.03-.14,1.06,1.23,2.33,1.91,3.5,1.12-.74,2.78-1.23,3.24-2.27,1.16-2.62,1.78-5.48,2.95-9.33.41,1.93.72,2.82.77,3.73,1.03,18.84,4.52,37.26,10.12,55.23,9.28,29.79,22.13,57.57,46.83,78.14,15.22,12.68,32.67,18.39,52.49,16.24,20.07-2.17,38.08-10.27,54.91-20.69,33.59-20.78,61.53-47.57,82.41-81.28,2.11-3.4,4.18-4.43,7.71-4.6,13.85-.68,24.6-6.97,33.85-17.29,12.07-13.47,14.78-37.54,5.51-54.01-5.74-10.21-13.79-18.15-24.93-22.52,1.78-8.94,3.49-17.47,5.21-26.07,1.13-.08,2.12-.22,3.1-.22q8.06-.04,9.83-7.6c.15-.64.24-1.31.29-1.97.73-9.7,3.94-17.21,15.36-17.55.16,0,.32-.08.48-.14,3.5-1.23,5.19-2.99,3.25-7.04-6.58-13.73-12.39-27.86-19.5-41.3-7.01-13.24-16.51-24.91-27.22-35.37-14.04-13.71-30.17-24.5-48.16-32.51-23.75-10.57-48.3-17.42-74.54-15.56-21.06,1.49-38.82,9.15-48.94,29.2-.97-.09-1.82-.05-2.61-.25-19.64-5.02-38.79-2.2-57.8,3.45-16.97,5.05-26.98,15.85-24.63,36.29,1.84,15.94,8.43,30,19.15,41.81,4.78,5.27,10.92,9.3,16.66,14.07Z"/>
    <path class="cls-1" d="M59.97,137.04c-5.74-4.77-11.87-8.8-16.66-14.07-10.72-11.81-17.31-25.86-19.15-41.81-2.35-20.44,7.66-31.24,24.63-36.29,19.01-5.65,38.16-8.48,57.8-3.45.79.2,1.64.16,2.61.25,10.13-20.06,27.89-27.71,48.94-29.2,26.24-1.86,50.79,4.99,74.54,15.56,17.99,8.01,34.12,18.8,48.16,32.51,10.71,10.46,20.21,22.14,27.22,35.37,7.11,13.44,12.92,27.57,19.5,41.3,1.94,4.05.25,5.81-3.25,7.04-.16.06-.32.13-.48.14-11.42.34-14.63,7.85-15.36,17.55-.05.66-.14,1.33-.29,1.97q-1.77,7.56-9.83,7.6c-.99,0-1.98.14-3.1.22-1.72,8.6-3.42,17.14-5.21,26.07,11.13,4.38,19.18,12.31,24.93,22.52,9.26,16.47,6.56,40.54-5.51,54.01-9.25,10.32-20.01,16.61-33.85,17.29-3.53.17-5.61,1.2-7.71,4.6-20.89,33.71-48.82,60.51-82.41,81.28-16.83,10.41-34.84,18.51-54.91,20.69-19.83,2.15-37.27-3.57-52.49-16.24-24.71-20.58-37.55-48.35-46.83-78.14-5.6-17.97-9.09-36.39-10.12-55.23-.05-.91-.36-1.8-.77-3.73-1.17,3.85-1.79,6.71-2.95,9.33-.46,1.03-2.12,1.53-3.24,2.27-.68-1.17-2.05-2.43-1.91-3.5.45-3.41,1.08-6.91,2.43-10.03.57-1.32,3.12-1.78,5.11-2.81.8-9.29,2.31-19.7,2.37-30.11.04-7.18-.01-15.59-3.57-21.21-3.41-5.38-2.81-9.89-3.19-15.58,5.09-.63,9.97-1.41,14.89-1.79,3.6-.28,5.52-1.82,7.66-4.96,6.68-9.8,14.17-19.05,21.34-28.51.38-.51.76-1.01.67-.89ZM33.34,257.52c3.74,15.71,6.59,31.77,11.44,47.2,8.1,25.77,19.92,49.67,41.28,67.48,11.66,9.72,24.93,14.68,40.37,13.66,18.28-1.22,34.5-8.42,49.78-17.58,34.5-20.67,62.82-47.8,83.24-82.72,2.66-4.55,5.89-6.36,11.27-6.2,13.45.4,24.31-5.17,31.57-16.54,7.48-11.7,8.03-24.3,1.55-36.49-6.7-12.58-17.88-18.65-32.11-19.4-4.54-.24-7.04.88-8.82,5.58-4.76,12.57-10.35,24.81-15.44,37.26-1.51,3.68-3.59,5.4-7.83,5.32-10.09-.19-10.1.02-11.07-10.16-.14-1.49-.14-2.99-.25-4.49-1.12-14.76-2.32-29.52-3.33-44.29-.27-3.92-1.45-5.66-5.88-5.92-10.62-.61-21.22-1.83-31.79-3.1-14.79-1.77-11.66-.56-13.08,10.32-1.17,8.98-3.05,17.94-11.14,23.62-14.99,10.54-39.05,6.94-49.71-7.98-4.67-6.53-7.57-14.32-11.57-21.36-.94-1.65-3.07-3.6-4.67-3.62-1.55-.02-3.67,1.97-4.59,3.61-2.27,4.03-3.97,8.39-5.96,12.59-9.18,19.46-24.61,24.61-43.97,21.51-2.99-.48-5.89-1.52-8.99-2.35v23.4c1.15-1.53,1.39-3.27,2.25-4.6.59-.91,2.02-1.55,3.16-1.72.65-.1,1.8.82,2.16,1.55,1.91,3.88-2.59,13.91-7.88,15.42ZM208.59,122.6c-20.96-1.06-40.18-2.74-59.41-2.82-21.41-.09-41.24,7.5-61.16,14.63-15.44,5.53-24.33,17.45-33.87,29.66,5.88,0,11.15-.21,16.4.05,7.53.37,7.75.74,7.93,8,14.12,4.89,22.08,4.84,38.57-.28-1-3.51-1.12-6.83,3.61-7.41,11.07-1.37,21.86-.22,32.39,3.64,3.7,1.35,7.6,2.29,11.49,2.94,11.16,1.85,22.37,3.42,33.55,5.16,7.99,1.24,15.97,2.57,23.96,3.87.38-.39.76-.78,1.14-1.17-1.43-2.59-2.31-5.79-4.38-7.65-5.16-4.62-10.76-8.77-16.38-12.83-3.27-2.36-4.38-4.44-2.7-8.7,3.26-8.25,5.59-16.87,8.87-27.08ZM125.84,186.22c-12.37,3.61-13.94,6.82-8.91,17.52,6.6,14.02,18.14,19.44,33.62,15.78,13.96-3.3,22.51-26.96,13.55-38.19-1.46-1.84-4.62-2.39-7.07-3.35-1.2-.47-2.65-.3-3.85-.77-11.56-4.53-22.86-2.04-34,1.52-2.28.73-4.03,3.14-6.03,4.78l.82,1.18c16.79-10.92,32.9-9.56,48.23,2.74,1.29,1.03,1.52,3.39,2.24,5.13-2.03-.06-4.38.51-6.04-.31-3.91-1.94-7.49-4.55-11.65-7.17.65,9.73-3.33,15.26-10.33,15.34-6.91.08-11.17-5.42-10.6-14.19ZM48.04,184.61c-3.2,2.87-6.83,4.61-7.82,7.31-2.67,7.25-4.2,14.91-6.15,22.29,9.45,7.21,19.23,8.14,29.2,4.17,10.34-4.11,14.82-13.16,17.16-23.42.21-.93-.16-2.57-.84-3.04-3.08-2.16-6.38-4.03-10.12-6.32-.18,9.87-3.95,14.69-10.59,14.8-6.92.12-10.59-4.69-10.84-15.79ZM45.08,178.29c.2.47.41.95.61,1.42,12.19-4.59,23.6-2.23,34.82,3.47-1.86-2.13-3.84-4.26-6.15-4.7-8.08-1.57-16.25-2.78-24.45-3.59-1.49-.15-3.22,2.21-4.84,3.41Z"/>
    <path class="cls-2" d="M33.34,257.52c5.29-1.52,9.79-11.54,7.88-15.42-.36-.74-1.52-1.65-2.16-1.55-1.14.18-2.57.81-3.16,1.72-.87,1.33-1.1,3.07-2.25,4.6v-23.4c3.1.83,6,1.87,8.99,2.35,19.35,3.1,34.79-2.06,43.97-21.51,1.98-4.2,3.68-8.56,5.96-12.59.92-1.64,3.04-3.62,4.59-3.61,1.6.02,3.73,1.97,4.67,3.62,4,7.05,6.9,14.83,11.57,21.36,10.66,14.91,34.72,18.52,49.71,7.98,8.08-5.69,9.97-14.64,11.14-23.62,1.42-10.88-1.72-12.1,13.08-10.32,10.57,1.27,21.17,2.49,31.79,3.1,4.42.26,5.61,2,5.88,5.92,1.01,14.77,2.21,29.53,3.33,44.29.11,1.49.11,3,.25,4.49.97,10.18.98,9.97,11.07,10.16,4.23.08,6.32-1.64,7.83-5.32,5.09-12.44,10.68-24.69,15.44-37.26,1.78-4.7,4.28-5.82,8.82-5.58,14.23.75,25.42,6.82,32.11,19.4,6.49,12.19,5.93,24.79-1.55,36.49-7.26,11.37-18.12,16.94-31.57,16.54-5.39-.16-8.61,1.65-11.27,6.2-20.42,34.91-48.74,62.05-83.24,82.72-15.28,9.16-31.5,16.36-49.78,17.58-15.43,1.03-28.71-3.94-40.37-13.66-21.36-17.81-33.18-41.7-41.28-67.48-4.85-15.43-7.7-31.48-11.44-47.2ZM113.6,333.57c6.29-1.33,12.8-2.03,18.81-4.14,10.31-3.61,20.36-8,30.39-12.36,1.49-.65,3.23-2.98,3.13-4.42-.1-1.48-2.05-3.4-3.64-4.12-4.53-2.03-9.54-3.07-13.91-5.36-7.62-4-14.86-8.71-22.32-13-4.25-2.44-8.92-3.16-13.44-1.2-2.73,1.18-4.8.99-7.37-.24-11-5.27-26.42,3.52-23.01,17.91.26,1.08.25,2.32,0,3.4-1.54,7.11,0,11.31,5.71,15.48,7.61,5.56,16.27,7.27,25.65,8.03ZM94.65,279.94c2.95-.43,5.88-.93,8.84-1.25,3.08-.33,5.33-1.69,4.86-4.99-.48-3.34-3.14-3.8-6.1-3.39-3.44.47-6.9,1.12-10.34,1.06-5.57-.1-7.82-2.74-7.02-8.32.58-4.06,1.39-8.25,3.03-11.97,4.08-9.21,8.61-18.22,13.13-27.22,1.32-2.64,2.22-5.17-.66-6.96-3.14-1.95-5.31.14-6.87,2.73-1.62,2.69-3.33,5.39-4.5,8.28-4.26,10.56-9.41,20.93-12.17,31.89-3.31,13.15,4.14,20.62,17.8,20.14ZM287.37,235.15c-1.5-1.6-2.98-4.18-5.2-5.33-3.19-1.65-6.21.34-7.25,3.33-2.06,5.94-3.72,12.06-4.91,18.23-.6,3.08.98,5.87,4.6,6.68,3.5.79,6.11-.74,7.17-3.8,2.01-5.79,3.48-11.77,5.6-19.12ZM160.59,253.27c-1.1-4.04-1.76-7.5-3.06-10.7-.42-1.03-2.6-1.91-3.88-1.79-.77.07-2.06,2.31-1.89,3.38.54,3.43,1.43,6.86,2.66,10.11.39,1.04,2.5,2.33,3.39,2.06,1.2-.36,1.99-2.11,2.78-3.05ZM171.26,253.37c-1.03-3.88-1.68-7.31-2.95-10.49-.44-1.11-2.42-1.61-3.69-2.38-.74,1.33-2.23,2.75-2.07,3.96.45,3.39,1.32,6.8,2.58,9.98.4,1.01,2.59,1.93,3.85,1.79.91-.1,1.64-1.98,2.28-2.85ZM181.89,253.39c-1.09-4.09-1.72-7.53-3-10.7-.42-1.03-2.55-1.84-3.88-1.82-.64.01-1.91,2.29-1.74,3.37.52,3.4,1.39,6.78,2.57,10.01.37,1.01,2.39,2.24,3.3,2,1.16-.3,1.97-1.98,2.74-2.86Z"/>
    <path class="cls-2" d="M208.59,122.6c-3.28,10.21-5.61,18.83-8.87,27.08-1.68,4.25-.57,6.33,2.7,8.7,5.62,4.06,11.22,8.21,16.38,12.83,2.08,1.86,2.96,5.06,4.38,7.65-.38.39-.76.78-1.14,1.17-7.98-1.29-15.96-2.62-23.96-3.87-11.18-1.74-22.39-3.31-33.55-5.16-3.89-.64-7.79-1.58-11.49-2.94-10.53-3.86-21.32-5.01-32.39-3.64-4.73.59-4.61,3.91-3.61,7.41-16.49,5.12-24.45,5.17-38.57.28-.19-7.25-.4-7.62-7.93-8-5.25-.26-10.52-.05-16.4-.05,9.53-12.21,18.43-24.13,33.87-29.66,19.92-7.14,39.75-14.72,61.16-14.63,19.23.08,38.46,1.76,59.41,2.82Z"/>
    <path class="cls-2" d="M125.84,186.22c-.57,8.77,3.69,14.27,10.6,14.19,7-.08,10.98-5.61,10.33-15.34,4.16,2.62,7.74,5.23,11.65,7.17,1.65.82,4,.25,6.04.31-.72-1.74-.95-4.1-2.24-5.13-15.33-12.29-31.44-13.65-48.23-2.74l-.82-1.18c1.99-1.64,3.74-4.05,6.03-4.78,11.14-3.55,22.43-6.04,34-1.52,1.2.47,2.65.3,3.85.77,2.45.96,5.6,1.51,7.07,3.35,8.96,11.23.41,34.89-13.55,38.19-15.48,3.66-27.02-1.76-33.62-15.78-5.03-10.7-3.46-13.91,8.91-17.52Z"/>
    <path class="cls-2" d="M48.04,184.61c.25,11.11,3.91,15.92,10.84,15.79,6.64-.12,10.41-4.93,10.59-14.8,3.75,2.3,7.04,4.16,10.12,6.32.68.48,1.05,2.11.84,3.04-2.35,10.26-6.83,19.3-17.16,23.42-9.97,3.97-19.76,3.04-29.2-4.17,1.95-7.37,3.49-15.04,6.15-22.29,1-2.71,4.63-4.45,7.82-7.31Z"/>
    <path class="cls-2" d="M45.08,178.29c1.62-1.2,3.35-3.56,4.84-3.41,8.19.81,16.36,2.02,24.45,3.59,2.31.45,4.29,2.57,6.15,4.7-11.21-5.69-22.62-8.05-34.82-3.47-.2-.47-.41-.95-.61-1.42Z"/>
    <path class="cls-1" d="M113.6,333.57c-9.39-.76-18.05-2.48-25.65-8.03-5.71-4.17-7.25-8.38-5.71-15.48.24-1.09.25-2.32,0-3.4-3.41-14.39,12.01-23.19,23.01-17.91,2.57,1.23,4.64,1.43,7.37.24,4.53-1.96,9.2-1.25,13.44,1.2,7.47,4.29,14.71,9,22.32,13,4.37,2.29,9.38,3.33,13.91,5.36,1.59.71,3.54,2.63,3.64,4.12.1,1.44-1.64,3.77-3.13,4.42-10.03,4.36-20.08,8.75-30.39,12.36-6.01,2.11-12.52,2.8-18.81,4.14ZM140.52,316.75c-17.4-3.72-43.22-6.44-50.03-1.06,7.88,11.05,33.11,11.59,50.03,1.06ZM136.83,306.01c-5.77-3.21-10.96-6.27-16.33-8.98-1.31-.66-3.57-.78-4.78-.09-5,2.87-9.38,2.21-14.42-.33-2.15-1.08-6.22-.05-8.52,1.42-1.73,1.1-2.03,4.44-2.68,6.05,15.96.66,30.9,1.27,46.72,1.92Z"/>
    <path class="cls-1" d="M94.65,279.94c-13.65.49-21.11-6.98-17.8-20.14,2.76-10.96,7.91-21.33,12.17-31.89,1.17-2.9,2.88-5.59,4.5-8.28,1.56-2.59,3.73-4.68,6.87-2.73,2.88,1.79,1.98,4.32.66,6.96-4.52,9-9.06,18.01-13.13,27.22-1.64,3.72-2.45,7.91-3.03,11.97-.8,5.58,1.46,8.22,7.02,8.32,3.44.06,6.91-.6,10.34-1.06,2.96-.4,5.62.06,6.1,3.39.47,3.3-1.78,4.65-4.86,4.99-2.96.32-5.9.83-8.84,1.25Z"/>
    <path class="cls-1" d="M287.37,235.15c-2.11,7.35-3.59,13.33-5.6,19.12-1.06,3.07-3.67,4.59-7.17,3.8-3.62-.82-5.2-3.6-4.6-6.68,1.19-6.17,2.85-12.29,4.91-18.23,1.04-2.99,4.06-4.98,7.25-3.33,2.22,1.15,3.71,3.73,5.2,5.33Z"/>
    <path class="cls-1" d="M160.59,253.27c-.78.94-1.57,2.69-2.78,3.05-.89.27-3-1.02-3.39-2.06-1.23-3.25-2.12-6.67-2.66-10.11-.17-1.07,1.12-3.31,1.89-3.38,1.28-.12,3.46.77,3.88,1.79,1.31,3.2,1.97,6.66,3.06,10.7Z"/>
    <path class="cls-1" d="M171.26,253.37c-.64.87-1.37,2.76-2.28,2.85-1.26.13-3.44-.78-3.85-1.79-1.26-3.18-2.13-6.58-2.58-9.98-.16-1.21,1.33-2.63,2.07-3.96,1.27.78,3.25,1.28,3.69,2.38,1.27,3.18,1.91,6.62,2.95,10.49Z"/>
    <path class="cls-1" d="M181.89,253.39c-.78.88-1.58,2.57-2.74,2.86-.91.23-2.93-1-3.3-2-1.19-3.22-2.05-6.61-2.57-10.01-.17-1.08,1.1-3.36,1.74-3.37,1.33-.02,3.46.79,3.88,1.82,1.28,3.17,1.91,6.61,3,10.7Z"/>
    <path class="cls-2" d="M140.52,316.75c-16.92,10.53-42.15,9.99-50.03-1.06,6.81-5.38,32.63-2.66,50.03,1.06Z"/>
    <path class="cls-2" d="M136.83,306.01c-15.82-.65-30.76-1.26-46.72-1.92.65-1.62.95-4.95,2.68-6.05,2.3-1.47,6.37-2.51,8.52-1.42,5.04,2.54,9.42,3.21,14.42.33,1.21-.7,3.47-.57,4.78.09,5.37,2.7,10.56,5.76,16.33,8.98Z"/>
  </g>
</svg>